<svg width="32" height="32" viewBox="0 0 32 32" fill="none" xmlns="http://www.w3.org/2000/svg">
<g id="Icon">
<path id="Icon_2" d="M16 29.3333C8.63596 29.3333 2.66663 23.364 2.66663 16C2.66663 8.63601 8.63596 2.66667 16 2.66667C23.364 2.66667 29.3333 8.63601 29.3333 16C29.3333 23.364 23.364 29.3333 16 29.3333ZM16 26.6667C18.8289 26.6667 21.542 25.5429 23.5424 23.5425C25.5428 21.5421 26.6666 18.829 26.6666 16C26.6666 13.171 25.5428 10.4579 23.5424 8.45753C21.542 6.45714 18.8289 5.33334 16 5.33334C13.171 5.33334 10.4579 6.45714 8.45749 8.45753C6.4571 10.4579 5.33329 13.171 5.33329 16C5.33329 18.829 6.4571 21.5421 8.45749 23.5425C10.4579 25.5429 13.171 26.6667 16 26.6667ZM14.6666 9.33334H17.3333V12H14.6666V9.33334ZM14.6666 14.6667H17.3333V22.6667H14.6666V14.6667Z" fill="#52525B"/>
</g>
</svg>
