<svg width="32" height="32" viewBox="0 0 32 32" fill="none" xmlns="http://www.w3.org/2000/svg">
<g id="Icon">
<path id="Icon_2" d="M4.45329 22.6667C3.88965 21.692 3.45151 20.6499 3.14929 19.5653C3.80704 19.2308 4.35942 18.7208 4.74533 18.0919C5.13124 17.4629 5.33565 16.7394 5.33592 16.0015C5.3362 15.2636 5.13234 14.5399 4.7469 13.9107C4.36145 13.2814 3.80945 12.771 3.15196 12.436C3.75467 10.2566 4.90226 8.2666 6.48662 6.65333C7.10542 7.05563 7.82345 7.27888 8.56126 7.29837C9.29907 7.31787 10.0279 7.13284 10.6671 6.76378C11.3062 6.39471 11.8308 5.856 12.1828 5.20725C12.5348 4.55851 12.7004 3.82504 12.6613 3.088C14.8508 2.52216 17.1483 2.52308 19.3373 3.09067C19.2986 3.82769 19.4645 4.56105 19.8167 5.20961C20.169 5.85817 20.6938 6.39663 21.3331 6.76541C21.9724 7.1342 22.7012 7.31892 23.439 7.29914C24.1768 7.27935 24.8947 7.05584 25.5133 6.65333C26.2853 7.44 26.9706 8.33467 27.5466 9.33333C28.124 10.332 28.556 11.3733 28.8506 12.4347C28.1929 12.7692 27.6405 13.2792 27.2546 13.9081C26.8687 14.5371 26.6643 15.2606 26.664 15.9985C26.6637 16.7364 26.8676 17.4601 27.253 18.0893C27.6385 18.7186 28.1905 19.229 28.848 19.564C28.2452 21.7434 27.0977 23.7334 25.5133 25.3467C24.8945 24.9444 24.1765 24.7211 23.4387 24.7016C22.7008 24.6821 21.972 24.8672 21.3329 25.2362C20.6937 25.6053 20.1691 26.144 19.8171 26.7927C19.4652 27.4415 19.2995 28.175 19.3386 28.912C17.1491 29.4778 14.8517 29.4769 12.6626 28.9093C12.7014 28.1723 12.5354 27.4389 12.1832 26.7904C11.831 26.1418 11.3061 25.6034 10.6669 25.2346C10.0276 24.8658 9.2987 24.6811 8.56093 24.7009C7.82316 24.7206 7.10524 24.9442 6.48662 25.3467C5.69861 24.5426 5.01542 23.6421 4.45329 22.6667ZM12 22.928C13.4208 23.7475 14.4891 25.0627 15 26.6213C15.6653 26.684 16.3333 26.6853 16.9986 26.6227C17.5098 25.0638 18.5786 23.7486 20 22.9293C21.4202 22.1076 23.094 21.8393 24.7 22.176C25.0866 21.632 25.42 21.052 25.6973 20.4453C24.6032 19.2233 23.9988 17.6403 24 16C24 14.32 24.6266 12.7507 25.6973 11.5547C25.418 10.9482 25.0832 10.3688 24.6973 9.824C23.0923 10.1604 21.4197 9.89264 20 9.072C18.5791 8.2525 17.5108 6.93731 17 5.37867C16.3346 5.316 15.6666 5.31467 15.0013 5.37733C14.4901 6.9362 13.4213 8.25141 12 9.07067C10.5797 9.89242 8.90593 10.1607 7.29996 9.824C6.91405 10.3684 6.58013 10.9478 6.30263 11.5547C7.39672 12.7767 8.00114 14.3597 7.99996 16C7.99996 17.68 7.37329 19.2493 6.30263 20.4453C6.58192 21.0518 6.91668 21.6312 7.30263 22.176C8.90758 21.8396 10.5802 22.1074 12 22.928ZM16 20C14.9391 20 13.9217 19.5786 13.1715 18.8284C12.4214 18.0783 12 17.0609 12 16C12 14.9391 12.4214 13.9217 13.1715 13.1716C13.9217 12.4214 14.9391 12 16 12C17.0608 12 18.0782 12.4214 18.8284 13.1716C19.5785 13.9217 20 14.9391 20 16C20 17.0609 19.5785 18.0783 18.8284 18.8284C18.0782 19.5786 17.0608 20 16 20ZM16 17.3333C16.3536 17.3333 16.6927 17.1929 16.9428 16.9428C17.1928 16.6928 17.3333 16.3536 17.3333 16C17.3333 15.6464 17.1928 15.3072 16.9428 15.0572C16.6927 14.8071 16.3536 14.6667 16 14.6667C15.6463 14.6667 15.3072 14.8071 15.0571 15.0572C14.8071 15.3072 14.6666 15.6464 14.6666 16C14.6666 16.3536 14.8071 16.6928 15.0571 16.9428C15.3072 17.1929 15.6463 17.3333 16 17.3333Z" fill="#52525B"/>
</g>
</svg>
