<svg width="32" height="32" viewBox="0 0 32 32" fill="none" xmlns="http://www.w3.org/2000/svg">
<g id="Icon">
<path id="Icon_2" d="M18.6667 19.0027V21.7893C17.4599 21.3627 16.1684 21.2318 14.9006 21.4077C13.6328 21.5836 12.4256 22.0612 11.3806 22.8003C10.3356 23.5394 9.48317 24.5184 8.89492 25.6552C8.30668 26.792 7.9998 28.0534 8.00004 29.3333L5.33337 29.332C5.33296 27.7038 5.70527 26.0972 6.42177 24.6352C7.13828 23.1732 8.17996 21.8946 9.467 20.8974C10.754 19.9002 12.2523 19.2108 13.8469 18.8822C15.4415 18.5535 17.0903 18.5943 18.6667 19.0013V19.0027ZM16 17.3333C11.58 17.3333 8.00004 13.7533 8.00004 9.33333C8.00004 4.91333 11.58 1.33333 16 1.33333C20.42 1.33333 24 4.91333 24 9.33333C24 13.7533 20.42 17.3333 16 17.3333ZM16 14.6667C18.9467 14.6667 21.3334 12.28 21.3334 9.33333C21.3334 6.38666 18.9467 4 16 4C13.0534 4 10.6667 6.38666 10.6667 9.33333C10.6667 12.28 13.0534 14.6667 16 14.6667ZM24.7814 22.6667L22.3427 20.2293L24.2294 18.3427L29.8854 24L24.2294 29.6573L22.3427 27.7707L24.7814 25.3333H20V22.6667H24.7814Z" fill="#52525B"/>
</g>
</svg>
