<svg width="32" height="32" viewBox="0 0 32 32" fill="none" xmlns="http://www.w3.org/2000/svg">
<g id="Icon">
<path id="Exclude" fill-rule="evenodd" clip-rule="evenodd" d="M16.027 5.62869L26.3984 16.0002L15.0843 27.3143L4.71406 16.944L6.1281 7.04367L16.027 5.62869ZM29.227 15.0575L17.9126 3.74307C17.319 3.1495 16.4806 2.87007 15.6496 2.98886L4.76087 4.54533C4.17427 4.62918 3.71339 5.09011 3.62961 5.67672L2.07418 16.5669C1.95551 17.3978 2.23494 18.2361 2.82844 18.8296L14.1417 30.1428C14.3917 30.3928 14.7308 30.5332 15.0843 30.5332C15.4379 30.5332 15.777 30.3928 16.027 30.1428L29.227 16.9428C29.477 16.6928 29.6174 16.3537 29.6174 16.0002C29.6174 15.6466 29.477 15.3075 29.227 15.0575ZM14.6667 12.6668C14.6667 14.5078 13.1743 16.0002 11.3333 16.0002C9.49238 16.0002 8 14.5078 8 12.6668C8 10.8259 9.49238 9.3335 11.3333 9.3335C13.1743 9.3335 14.6667 10.8259 14.6667 12.6668Z" fill="#52525B"/>
</g>
</svg>
