<svg width="24" height="24" viewBox="0 0 24 24" fill="none" xmlns="http://www.w3.org/2000/svg">
<g id="infoSign$">
<path id="Icon" fill-rule="evenodd" clip-rule="evenodd" d="M21.9999 12C21.9999 17.5228 17.5227 22 11.9999 22C6.47703 22 1.99988 17.5228 1.99988 12C1.99988 6.47715 6.47703 2 11.9999 2C17.5227 2 21.9999 6.47715 21.9999 12ZM10.9999 10C10.4476 10 9.99988 10.4477 9.99988 11C9.99988 11.5523 10.4476 12 10.9999 12V17C10.9999 17.5523 11.4476 18 11.9999 18H12.9999C13.5522 18 13.9999 17.5523 13.9999 17C13.9999 16.4477 13.5522 16 12.9999 16V11C12.9999 10.4477 12.5522 10 11.9999 10H10.9999ZM10.9999 7.5C10.9999 6.94772 11.4476 6.5 11.9999 6.5C12.5522 6.5 12.9999 6.94772 12.9999 7.5C12.9999 8.05229 12.5522 8.5 11.9999 8.5C11.4476 8.5 10.9999 8.05229 10.9999 7.5Z" fill="#A1A1AA"/>
</g>
</svg>
